<svg width="37" height="37" viewBox="0 0 37 37" fill="none" xmlns="http://www.w3.org/2000/svg">
<path d="M37 21.275C37 24.531 34.595 27.232 31.45 27.676V33.3C31.45 34.2813 31.0602 35.2224 30.3663 35.9163C29.6724 36.6102 28.7313 37 27.75 37H20.72V36.445C20.72 35.1202 20.1937 33.8497 19.257 32.913C18.3203 31.9763 17.0498 31.45 15.725 31.45C12.95 31.45 10.73 33.6885 10.73 36.445V37H3.7C2.7187 37 1.77759 36.6102 1.0837 35.9163C0.38982 35.2224 0 34.2813 0 33.3V26.27H0.555C3.3115 26.27 5.55 24.05 5.55 21.275C5.55 18.5 3.3115 16.28 0.555 16.28H0V9.25C0 8.2687 0.38982 7.32759 1.0837 6.6337C1.77759 5.93982 2.7187 5.55 3.7 5.55H9.324C9.768 2.405 12.469 0 15.725 0C18.981 0 21.682 2.405 22.126 5.55H27.75C28.7313 5.55 29.6724 5.93982 30.3663 6.6337C31.0602 7.32759 31.45 8.2687 31.45 9.25V14.874C34.595 15.318 37 18.019 37 21.275ZM27.75 24.05H30.525C31.261 24.05 31.9668 23.7576 32.4872 23.2372C33.0076 22.7168 33.3 22.011 33.3 21.275C33.3 20.539 33.0076 19.8332 32.4872 19.3128C31.9668 18.7924 31.261 18.5 30.525 18.5H27.75V9.25H18.5V6.475C18.5 5.73902 18.2076 5.03319 17.6872 4.51278C17.1668 3.99236 16.461 3.7 15.725 3.7C14.989 3.7 14.2832 3.99236 13.7628 4.51278C13.2424 5.03319 12.95 5.73902 12.95 6.475V9.25H3.7V13.172C6.956 14.43 9.25 17.575 9.25 21.275C9.25 24.975 6.9375 28.12 3.7 29.378V33.3H7.622C8.25593 31.666 9.36886 30.2618 10.8148 29.2714C12.2608 28.281 13.9724 27.7507 15.725 27.75C19.425 27.75 22.57 30.0625 23.828 33.3H27.75V24.05Z" fill="#941530"/>
</svg>
