<svg width="36" height="36" viewBox="0 0 36 36" fill="none" xmlns="http://www.w3.org/2000/svg">
<g clip-path="url(#clip0_458_445)">
<path d="M18.171 35.1462C27.5278 35.1462 35.1125 27.5615 35.1125 18.2047C35.1125 8.84789 27.5278 1.26318 18.171 1.26318C8.8142 1.26318 1.22949 8.84789 1.22949 18.2047C1.22949 27.5615 8.8142 35.1462 18.171 35.1462Z" stroke="#941530" stroke-width="1.5" stroke-linecap="round" stroke-linejoin="round"/>
<path d="M2.07617 19.0519L11.394 22.4402L9.69984 28.3698L11.394 33.4522M26.6413 32.6051L25.7943 28.3698L21.5589 26.6756V20.7461L26.6413 19.0519L34.265 19.899M30.0296 7.19289L29.1826 9.73412L23.253 10.5812V15.6636L27.4884 13.9695H30.8767L34.265 15.6636M2.07617 15.6636L6.31154 12.2753L10.5469 11.4283L13.9352 6.34582L12.2411 2.95752" stroke="#941530" stroke-width="1.5" stroke-linecap="round" stroke-linejoin="round"/>
<g clip-path="url(#clip1_458_445)">
<path d="M20.3687 10.5C22.8184 10.5 25.1679 11.4732 26.9001 13.2054C28.6324 14.9377 29.6055 17.2871 29.6055 19.7368C29.6055 22.0247 28.7671 24.1279 27.3887 25.7479L27.7724 26.1316H28.895L36.0003 33.2368L33.8687 35.3684L26.7634 28.2632V27.1405L26.3797 26.7568C24.7034 28.1871 22.5722 28.973 20.3687 28.9737C17.9189 28.9737 15.5695 28.0005 13.8372 26.2683C12.105 24.536 11.1318 22.1866 11.1318 19.7368C11.1318 17.2871 12.105 14.9377 13.8372 13.2054C15.5695 11.4732 17.9189 10.5 20.3687 10.5ZM20.3687 13.3421C16.816 13.3421 13.9739 16.1842 13.9739 19.7368C13.9739 23.2895 16.816 26.1316 20.3687 26.1316C23.9213 26.1316 26.7634 23.2895 26.7634 19.7368C26.7634 16.1842 23.9213 13.3421 20.3687 13.3421Z" fill="#941530"/>
</g>
</g>
<defs>
<clipPath id="clip0_458_445">
<rect width="36" height="36" fill="white"/>
</clipPath>
<clipPath id="clip1_458_445">
<rect width="28.4211" height="28.4211" fill="white" transform="translate(7.5791 6.94727)"/>
</clipPath>
</defs>
</svg>
