<svg width="24" height="25" viewBox="0 0 24 25" fill="none" xmlns="http://www.w3.org/2000/svg">
<path d="M18.75 15.875V16.625H19.875C20.1734 16.625 20.4595 16.7435 20.6705 16.9545C20.8815 17.1655 21 17.4516 21 17.75C21 18.0484 20.8815 18.3345 20.6705 18.5455C20.4595 18.7565 20.1734 18.875 19.875 18.875H18.75V20C18.75 20.2984 18.6315 20.5845 18.4205 20.7955C18.2095 21.0065 17.9234 21.125 17.625 21.125C17.3266 21.125 17.0405 21.0065 16.8295 20.7955C16.6185 20.5845 16.5 20.2984 16.5 20V14.75C16.5 14.4516 16.6185 14.1655 16.8295 13.9545C17.0405 13.7435 17.3266 13.625 17.625 13.625H20.625C20.9234 13.625 21.2095 13.7435 21.4205 13.9545C21.6315 14.1655 21.75 14.4516 21.75 14.75C21.75 15.0484 21.6315 15.3345 21.4205 15.5455C21.2095 15.7565 20.9234 15.875 20.625 15.875H18.75ZM8.625 16.625C8.625 17.4206 8.30893 18.1837 7.74632 18.7463C7.18371 19.3089 6.42065 19.625 5.625 19.625H5.25V20C5.25 20.2984 5.13147 20.5845 4.9205 20.7955C4.70952 21.0065 4.42337 21.125 4.125 21.125C3.82663 21.125 3.54048 21.0065 3.3295 20.7955C3.11853 20.5845 3 20.2984 3 20V14.75C3 14.4516 3.11853 14.1655 3.3295 13.9545C3.54048 13.7435 3.82663 13.625 4.125 13.625H5.625C6.42065 13.625 7.18371 13.9411 7.74632 14.5037C8.30893 15.0663 8.625 15.8294 8.625 16.625ZM6.375 16.625C6.375 16.4261 6.29598 16.2353 6.15533 16.0947C6.01468 15.954 5.82391 15.875 5.625 15.875H5.25V17.375H5.625C5.82391 17.375 6.01468 17.296 6.15533 17.1553C6.29598 17.0147 6.375 16.8239 6.375 16.625ZM15.75 17.375C15.75 18.3696 15.3549 19.3234 14.6517 20.0266C13.9484 20.7299 12.9946 21.125 12 21.125H10.5C10.2016 21.125 9.91548 21.0065 9.7045 20.7955C9.49353 20.5845 9.375 20.2984 9.375 20V14.75C9.375 14.4516 9.49353 14.1655 9.7045 13.9545C9.91548 13.7435 10.2016 13.625 10.5 13.625H12C12.9946 13.625 13.9484 14.0201 14.6517 14.7233C15.3549 15.4266 15.75 16.3804 15.75 17.375ZM13.5 17.375C13.5 16.9772 13.342 16.5956 13.0607 16.3143C12.7794 16.033 12.3978 15.875 12 15.875H11.625V18.875H12C12.3978 18.875 12.7794 18.717 13.0607 18.4357C13.342 18.1544 13.5 17.7728 13.5 17.375ZM3.375 10.625V4.25C3.375 3.75272 3.57254 3.27581 3.92417 2.92417C4.27581 2.57254 4.75272 2.375 5.25 2.375H14.25C14.3978 2.37501 14.5442 2.40416 14.6808 2.46078C14.8174 2.5174 14.9415 2.60039 15.0459 2.705L20.2959 7.955C20.5066 8.16593 20.625 8.45187 20.625 8.75V10.625C20.625 10.9234 20.5065 11.2095 20.2955 11.4205C20.0845 11.6315 19.7984 11.75 19.5 11.75C19.2016 11.75 18.9155 11.6315 18.7045 11.4205C18.4935 11.2095 18.375 10.9234 18.375 10.625V10.25H13.875C13.5766 10.25 13.2905 10.1315 13.0795 9.9205C12.8685 9.70952 12.75 9.42337 12.75 9.125V4.625H5.625V10.625C5.625 10.9234 5.50647 11.2095 5.2955 11.4205C5.08452 11.6315 4.79837 11.75 4.5 11.75C4.20163 11.75 3.91548 11.6315 3.7045 11.4205C3.49353 11.2095 3.375 10.9234 3.375 10.625ZM15 5.84375V8H17.1562L15 5.84375Z" fill="black"/>
</svg>
